<?xml version="1.0" encoding="UTF-8"?>
<svg version="1.1" xmlns="http://www.w3.org/2000/svg" width="100" height="100">
<path d="M0 0 C0 0.66 0 1.32 0 2 C5.445 2.495 5.445 2.495 11 3 C10.46375 3.9075 9.9275 4.815 9.375 5.75 C8.92125 6.8225 8.4675 7.895 8 9 C8.62920208 10.35141665 9.2997776 11.68397918 10 13 C10.54005672 17.3681058 10.29861378 21.16702472 8.8125 25.3125 C8.544375 26.199375 8.27625 27.08625 8 28 C9.28350327 30.26757564 9.28350327 30.26757564 11 32 C11 32.66 11 33.32 11 34 C9.98679687 34.05607422 9.98679687 34.05607422 8.953125 34.11328125 C8.06109375 34.17902344 7.1690625 34.24476562 6.25 34.3125 C5.36828125 34.37050781 4.4865625 34.42851563 3.578125 34.48828125 C0.64486229 35.07048945 -0.71182964 36.13004565 -3 38 C-9.02527054 40.00842351 -15.80053746 39.8574176 -21.6875 37.5625 C-24 36 -24 36 -25 35 C-26.84891946 34.76636119 -28.70488031 34.58696365 -30.5625 34.4375 C-31.57441406 34.35371094 -32.58632813 34.26992187 -33.62890625 34.18359375 C-34.80259766 34.09271484 -34.80259766 34.09271484 -36 34 C-35.690625 33.236875 -35.38125 32.47375 -35.0625 31.6875 C-33.20162109 27.43014314 -33.20162109 27.43014314 -34 23 C-34.74190456 16.15258576 -34.14305514 10.62105515 -30 5 C-22.36889088 -3.55967328 -9.95368403 -8.02716454 0 0 Z M-26.3125 7.4375 C-29.60228269 12.43309594 -30.23528721 16.00017622 -30 22 C-26.74501773 18.29196881 -25.05131028 14.78886581 -23.1875 10.25 C-21.4140625 6.78515625 -21.4140625 6.78515625 -19 4 C-13.87044704 2.55632169 -9.27918773 2.58554639 -4 3 C-11.75705672 -2.17137115 -20.36016539 1.16341757 -26.3125 7.4375 Z M-4 3 C-3.67 3.99 -3.34 4.98 -3 6 C-3 5.01 -3 4.02 -3 3 C-3.33 3 -3.66 3 -4 3 Z M4 11 C2.64172029 12.64639965 1.30745749 14.31295807 0 16 C1.1858237 19.37503669 2.27573689 21.64722731 5 24 C6.00392976 17.474566 6.00392976 17.474566 5 11 C4.67 11 4.34 11 4 11 Z M-22 28 C-22.66 29.32 -23.32 30.64 -24 32 C-18.28264895 34.45029331 -14.20970773 35.33266291 -8 35 C-8 34.67 -8 34.34 -8 34 C-9.98 34 -11.96 34 -14 34 C-14 32.02 -14 30.04 -14 28 C-16.64 28 -19.28 28 -22 28 Z M-4 28 C-4 29.65 -4 31.3 -4 33 C-3.01 32.34 -2.02 31.68 -1 31 C-1.99 30.01 -2.98 29.02 -4 28 Z " fill="#181A19" transform="translate(62,31)"/>
<path d="M0 0 C0.66 0.33 1.32 0.66 2 1 C1.46375 1.7425 0.9275 2.485 0.375 3.25 C-0.07875 4.1575 -0.5325 5.065 -1 6 C-0.36124971 7.34692995 0.30894028 8.67914472 1 10 C1.58735167 14.82837626 1.53333254 19.73333467 -1 24 C-1.99 24.33 -2.98 24.66 -4 25 C-3.67 25.99 -3.34 26.98 -3 28 C-5.66710654 27.84759391 -7.4505871 27.50635081 -9.4453125 25.66796875 C-13 21.49375 -13 21.49375 -13 19 C-13.66 19 -14.32 19 -15 19 C-15.33 22.3 -15.66 25.6 -16 29 C-17.32 29 -18.64 29 -20 29 C-20 20.09 -20 11.18 -20 2 C-18.68 2 -17.36 2 -16 2 C-15.67 4.31 -15.34 6.62 -15 9 C-14.56429687 8.4946875 -14.12859375 7.989375 -13.6796875 7.46875 C-8.72977625 2.06884682 -8.72977625 2.06884682 -4.6875 1.6875 C-3.800625 1.790625 -2.91375 1.89375 -2 2 C-1.34 1.34 -0.68 0.68 0 0 Z M-5 8 C-6.35827971 9.64639965 -7.69254251 11.31295807 -9 13 C-7.8141763 16.37503669 -6.72426311 18.64722731 -4 21 C-2.99607024 14.474566 -2.99607024 14.474566 -4 8 C-4.33 8 -4.66 8 -5 8 Z " fill="#1C1D1E" transform="translate(71,34)"/>
<path d="M0 0 C0.33 0.66 0.66 1.32 1 2 C1.66 2 2.32 2 3 2 C4.60979288 4.00887802 6.01931663 6.12052782 7.46484375 8.25 C7.97144531 8.8275 8.47804687 9.405 9 10 C9.99 10 10.98 10 12 10 C12 9.34 12 8.68 12 8 C13.875 8.1875 13.875 8.1875 16 9 C17.25 11.5625 17.25 11.5625 18 14 C17.32453125 14.03738281 16.6490625 14.07476562 15.953125 14.11328125 C15.06109375 14.17902344 14.1690625 14.24476562 13.25 14.3125 C12.36828125 14.37050781 11.4865625 14.42851563 10.578125 14.48828125 C7.64486229 15.07048945 6.28817036 16.13004565 4 18 C-2.02527054 20.00842351 -8.80053746 19.8574176 -14.6875 17.5625 C-17 16 -17 16 -18 15 C-19.84891946 14.76636119 -21.70488031 14.58696365 -23.5625 14.4375 C-24.57441406 14.35371094 -25.58632813 14.26992187 -26.62890625 14.18359375 C-27.41136719 14.12300781 -28.19382812 14.06242187 -29 14 C-28 11 -28 11 -25.9375 9.8125 C-24.9784375 9.4103125 -24.9784375 9.4103125 -24 9 C-24 9.99 -24 10.98 -24 12 C-21.69 11.34 -19.38 10.68 -17 10 C-17 10.66 -17 11.32 -17 12 C-12.37269289 13.0448758 -7.71146122 13.51756279 -3 14 C-3 13.34 -3 12.68 -3 12 C-2.01 12 -1.02 12 0 12 C0 8.04 0 4.08 0 0 Z M3 8 C3 9.65 3 11.3 3 13 C3.99 12.34 4.98 11.68 6 11 C5.01 10.01 4.02 9.02 3 8 Z " fill="#0B0C0C" transform="translate(55,51)"/>
<path d="M0 0 C-0.66 1.32 -1.32 2.64 -2 4 C-2.61875 3.67 -3.2375 3.34 -3.875 3 C-8.8557039 1.40617475 -14.03553452 1.01184484 -19.0625 2.6875 C-24.35640075 5.42572452 -27.1514348 9.45430439 -29 15 C-28.938125 16.9490625 -28.938125 16.9490625 -28.875 18.9375 C-28.81979978 21.93487206 -28.901735 22.83622499 -30.5 25.5 C-30.995 25.995 -31.49 26.49 -32 27 C-34.64395295 22.38894606 -34.61149095 18.19767312 -34 13 C-32.12885226 6.37992665 -27.65015064 1.73922218 -22 -2 C-14.85264095 -5.2987811 -6.33911383 -4.70321349 0 0 Z " fill="#1D1E1D" transform="translate(62,31)"/>
<path d="M0 0 C1.32 0 2.64 0 4 0 C4 4.62 4 9.24 4 14 C2.68 14 1.36 14 0 14 C-0.33 12.35 -0.66 10.7 -1 9 C-1.99 11.31 -2.98 13.62 -4 16 C-1.36 16 1.28 16 4 16 C4 17.32 4 18.64 4 20 C3.24074219 20.01417969 2.48148438 20.02835938 1.69921875 20.04296875 C-1.27928194 20.18590588 -4.07969297 20.38837227 -7 21 C-9.28795759 23.35547425 -9.28795759 23.35547425 -10 26 C-11.32 25.67 -12.64 25.34 -14 25 C-12.23504746 21.5802645 -10.46202129 18.16477868 -8.6875 14.75 C-7.93823242 13.29787109 -7.93823242 13.29787109 -7.17382812 11.81640625 C-6.44389648 10.41455078 -6.44389648 10.41455078 -5.69921875 8.984375 C-5.25408936 8.12553711 -4.80895996 7.26669922 -4.3503418 6.38183594 C-3.02318021 4.04088703 -1.84227113 1.96713712 0 0 Z " fill="#E9EAEA" transform="translate(45,36)"/>
<path d="M0 0 C1.32 0 2.64 0 4 0 C4.33 2.31 4.66 4.62 5 7 C5.45890625 6.4946875 5.9178125 5.989375 6.390625 5.46875 C7.00421875 4.8190625 7.6178125 4.169375 8.25 3.5 C8.85328125 2.8503125 9.4565625 2.200625 10.078125 1.53125 C12 0 12 0 16 0 C14.48422593 3.65276702 12.2790238 5.7328072 9.4375 8.4375 C4.63959051 13.58141258 3.97406957 17.60619497 3.90234375 24.5078125 C3.93457031 25.33023438 3.96679688 26.15265625 4 27 C2.68 27 1.36 27 0 27 C0 18.09 0 9.18 0 0 Z " fill="#E1E3E3" transform="translate(51,36)"/>
<path d="M0 0 C0.33 0.66 0.66 1.32 1 2 C1.66 2 2.32 2 3 2 C4.60979288 4.00887802 6.01931663 6.12052782 7.46484375 8.25 C7.97144531 8.8275 8.47804688 9.405 9 10 C9.99 10 10.98 10 12 10 C12 9.34 12 8.68 12 8 C13.875 8.1875 13.875 8.1875 16 9 C17.25 11.5625 17.25 11.5625 18 14 C14.61884349 14.29036649 11.37080851 14.44908891 8 14 C5.375 11.5 5.375 11.5 4 9 C3.67 10.32 3.34 11.64 3 13 C2.34 13 1.68 13 1 13 C1 13.66 1 14.32 1 15 C-0.32 14.67 -1.64 14.34 -3 14 C-3 13.34 -3 12.68 -3 12 C-2.01 12 -1.02 12 0 12 C0 8.04 0 4.08 0 0 Z " fill="#0D0F0F" transform="translate(55,51)"/>
<path d="M0 0 C0.66 0 1.32 0 2 0 C3.16968953 2.33937907 3.13364221 3.77369368 3.125 6.375 C3.12757812 7.14585938 3.13015625 7.91671875 3.1328125 8.7109375 C3.00389788 10.9328189 2.61383717 12.86618508 2 15 C0.68 14.34 -0.64 13.68 -2 13 C-1.85966889 11.02043559 -1.7125877 9.04134859 -1.5625 7.0625 C-1.48128906 5.96035156 -1.40007812 4.85820313 -1.31640625 3.72265625 C-1 1 -1 1 0 0 Z " fill="#0A0B0B" transform="translate(69,42)"/>
<path d="M0 0 C3.68646141 1.45855647 5.16143971 3.30229045 7.25 6.625 C7.77078125 7.44226562 8.2915625 8.25953125 8.828125 9.1015625 C9.21484375 9.72804688 9.6015625 10.35453125 10 11 C8.68 11.33 7.36 11.66 6 12 C4.8001722 10.57277341 3.6154424 9.13284224 2.4375 7.6875 C1.77621094 6.88699219 1.11492188 6.08648437 0.43359375 5.26171875 C-0.27603516 4.14216797 -0.27603516 4.14216797 -1 3 C-0.67 2.01 -0.34 1.02 0 0 Z " fill="#E4E5E6" transform="translate(58,50)"/>
<path d="M0 0 C4 5.41176471 4 5.41176471 4 8 C5.32 8.66 6.64 9.32 8 10 C7.67 10.66 7.34 11.32 7 12 C4.47021342 11.61784075 3.29145802 11.33574032 1.5859375 9.37109375 C1.18632813 8.73300781 0.78671875 8.09492187 0.375 7.4375 C-0.78640808 5.53394697 -0.78640808 5.53394697 -2 4 C-2.66 4 -3.32 4 -4 4 C-4.66 4.66 -5.32 5.32 -6 6 C-6.33 5.01 -6.66 4.02 -7 3 C-2.25 0 -2.25 0 0 0 Z " fill="#232424" transform="translate(62,47)"/>
<path d="M0 0 C1 3 1 3 0.00390625 5.26171875 C-0.47175781 6.06222656 -0.94742188 6.86273438 -1.4375 7.6875 C-2.14712891 8.89986328 -2.14712891 8.89986328 -2.87109375 10.13671875 C-3.24363281 10.75160156 -3.61617187 11.36648437 -4 12 C-5.109375 10.23046875 -5.109375 10.23046875 -6 8 C-5.390625 6.11328125 -5.390625 6.11328125 -4.25 4.3125 C-3.88390625 3.71050781 -3.5178125 3.10851563 -3.140625 2.48828125 C-2 1 -2 1 0 0 Z " fill="#323331" transform="translate(43,36)"/>
<path d="M0 0 C1.875 0.1875 1.875 0.1875 4 1 C5.25 3.5625 5.25 3.5625 6 6 C4.35 6 2.7 6 1 6 C0.4465236 3.92446352 0 2.15634036 0 0 Z " fill="#0D0E0E" transform="translate(67,59)"/>
<path d="M0 0 C2.64 0.66 5.28 1.32 8 2 C7.67 2.99 7.34 3.98 7 5 C4.625 5.125 4.625 5.125 2 5 C1.34 4.34 0.68 3.68 0 3 C0 2.01 0 1.02 0 0 Z " fill="#222323" transform="translate(61,60)"/>
<path d="M0 0 C2.64 0 5.28 0 8 0 C6.875 1.5625 6.875 1.5625 5 3 C1.8125 2.6875 1.8125 2.6875 -1 2 C-0.67 1.34 -0.34 0.68 0 0 Z " fill="#141716" transform="translate(63,34)"/>
<path d="M0 0 C0.66 0.33 1.32 0.66 2 1 C0.25 4.875 0.25 4.875 -2 6 C-2.66 5.34 -3.32 4.68 -4 4 C-2.68 2.68 -1.36 1.36 0 0 Z " fill="#262626" transform="translate(61,34)"/>
</svg>
